{"title":"Frost VS Nixon 2008 DVDr Xvid Nlt Release By Zero Yuy","uid":4925191,"size":1049606536,"categoryP":"video","categoryS":"movies","magnet":"?xt=urn:btih:9fe989e9d25c20f1a8b59f97bef24d90cb0a19e5&amp;dn=Frost+VS+Nixon+2008+DVDr+Xvid+Nlt+Release+By+Zero+Yuy&amp;tr=udp%3A%2F%2Ftracker.openbittorrent.com%3A80&amp;tr=udp%3A%2F%2Fopen.demonii.com%3A1337&amp;tr=udp%3A%2F%2Ftracker.coppersurfer.tk%3A6969&amp;tr=udp%3A%2F%2Fexodus.desync.com%3A6969","seeders":0,"leechers":0,"uploader":"zeroyuy","files":-1,"time":1243815416,"description":" &lt;a href=&quot;http://www.moviemeter.nl/film/45642&quot; rel=&quot;nofollow&quot; target=&quot;_NEW&quot;&gt;http://www.moviemeter.nl/film/45642&lt;/a&gt;\n\nVerenigde Staten\nDrama\n122 minuten\n\ngeregisseerd door Ron Howard\nmet Michael Sheen, Frank Langella en Matthew Macfadyen\n\nNa het Watergate-schandaal in 1972, zoekt de Brit David Frost (Michael Sheen) contact met de Amerikaanse president Nixon (Langella). Hij weet hem te strikken voor zijn talkshow en levert zo een aantal zeer spraakmakende interviews af.\n\nMovieMeter rating: 3,75/5 (84 stemmen)\n\nVideo Info\n\nGeneral\nFormat : AVI\nFormat/Info : Audio Video Interleave\nFile size : 1 001 MiB\nDuration : 1h 55mn\nOverall bit rate : 1 215 Kbps\nWriting application : VirtualDubMod 1.5.10.2 (build 2542/release)\nWriting library : VirtualDubMod build 2542/release\n\nVideo\nFormat : MPEG-4 Visual\nFormat profile : Streaming Video@L1\nFormat settings, BVOP : Yes\nFormat settings, QPel : No\nFormat settings, GMC : No warppoints\nFormat settings, Matrix : Default\nMuxing mode : Packed bitstream\nCodec ID : XVID\nCodec ID/Hint : XviD\nDuration : 1h 55mn\nBit rate : 823 Kbps\nWidth : 800 pixels\nHeight : 452 pixels\nDisplay aspect ratio : 16/9\nFrame rate : 25.000 fps\nResolution : 24 bits\nColorimetry : 4:2:0\nScan type : Progressive\nBits/(Pixel*Frame) : 0.091\nStream size : 678 MiB (68%)\nWriting library : XviD 1.2.1 (UTC 2008-12-04)\n\nAudio\nFormat : AC-3\nFormat/Info : Audio Coding 3\nCodec ID : 2000\nDuration : 1h 55mn\nBit rate mode : Constant\nBit rate : 384 Kbps\nChannel(s) : 6 channels\nChannel positions : Front: L C R, Surround: L R, LFE\nSampling rate : 48.0 KHz\nStream size : 316 MiB (32%)\nAlignment : Split accross interleaves\nInterleave, duration : 64 ms (1.60 video frames)\nInterleave, preload duration : 500 ms\n\nBrought you by Nlt Release @\n &lt;a href=&quot;\nhttp://nlt.ons-forum.nl&quot; rel=&quot;nofollow&quot; target=&quot;_NEW&quot;&gt;\nhttp://nlt.ons-forum.nl&lt;/a&gt;","torrent":{"xt":"urn:btih:9fe989e9d25c20f1a8b59f97bef24d90cb0a19e5","amp;dn":"Frost+VS+Nixon+2008+DVDr+Xvid+Nlt+Release+By+Zero+Yuy","amp;tr":["udp%3A%2F%2Ftracker.openbittorrent.com%3A80","udp%3A%2F%2Fopen.demonii.com%3A1337","udp%3A%2F%2Ftracker.coppersurfer.tk%3A6969","udp%3A%2F%2Fexodus.desync.com%3A6969"],"infoHash":"9fe989e9d25c20f1a8b59f97bef24d90cb0a19e5","infoHashBuffer":{"type":"Buffer","data":[159,233,137,233,210,92,32,241,168,181,159,151,190,242,77,144,203,10,25,229]},"announce":[],"urlList":[]}}